<?xml version="1.0" standalone="no"?>
<!DOCTYPE svg PUBLIC "-//W3C//DTD SVG 20010904//EN"
 "http://www.w3.org/TR/2001/REC-SVG-20010904/DTD/svg10.dtd">
<svg version="1.0" xmlns="http://www.w3.org/2000/svg"
 width="300.000000pt" height="101.000000pt" viewBox="0 0 300.000000 101.000000"
 preserveAspectRatio="xMidYMid meet">
<metadata>
Created by potrace 1.10, written by Peter Selinger 2001-2011
</metadata>
<g transform="translate(0.000000,101.000000) scale(0.100000,-0.100000)"
fill="#ffffff" stroke="none">
<path d="M1090 868 c-22 -24 -22 -25 -20 -160 1 -55 -2 -98 -8 -98 -5 0 -29
26 -54 58 -88 110 -184 202 -213 202 -30 0 -75 -43 -75 -73 0 -14 -4 -17 -17
-12 -43 18 -60 16 -91 -10 -18 -15 -32 -35 -32 -46 0 -26 -7 -24 -47 11 -44
39 -68 38 -109 -5 l-33 -36 -22 43 c-47 94 -103 122 -147 75 -17 -18 -23 -39
-27 -98 -2 -41 -9 -110 -15 -154 -6 -44 -13 -100 -16 -125 -7 -55 18 -150 46
-175 17 -16 24 -16 44 -6 18 10 28 29 40 80 9 36 16 77 16 90 0 23 3 21 38
-17 22 -23 44 -42 51 -42 18 0 54 21 67 38 16 22 31 7 39 -38 8 -47 48 -100
75 -100 11 0 32 16 47 35 l27 34 24 -21 c15 -15 33 -21 57 -20 18 1 36 -2 40
-8 12 -19 53 -10 74 16 19 24 20 35 14 129 -3 56 -3 119 2 141 l7 39 30 -35
c57 -68 188 -241 201 -268 8 -15 17 -62 20 -105 6 -90 24 -120 68 -115 18 2
33 -6 51 -26 18 -22 29 -27 46 -22 31 10 40 32 43 106 3 90 13 119 53 152 19
16 54 46 78 68 23 22 46 40 50 40 4 0 8 -12 8 -27 0 -34 32 -88 61 -103 17
-10 33 -8 75 5 71 22 104 17 124 -19 26 -47 45 -54 75 -26 14 13 25 33 25 45
0 12 6 30 14 41 14 19 15 19 38 -3 15 -15 37 -23 59 -23 19 0 42 -7 53 -15 16
-12 21 -12 41 1 30 19 49 66 39 96 -8 25 -7 208 1 216 3 3 14 -3 26 -14 34
-30 200 -246 211 -274 5 -14 12 -56 15 -95 7 -89 16 -113 48 -121 32 -8 51 8
59 48 3 18 17 44 30 58 22 23 66 165 66 214 0 27 26 18 82 -29 76 -66 111 -71
143 -21 25 37 12 63 -72 142 l-75 71 57 32 c57 32 115 104 115 144 0 25 -53
77 -80 77 -11 0 -43 -20 -69 -45 -26 -25 -53 -45 -60 -45 -6 0 -11 15 -11 34
0 40 -41 96 -70 96 -10 0 -32 -12 -49 -26 -17 -14 -31 -22 -31 -16 0 18 -49
62 -70 62 -11 0 -32 -11 -46 -25 -25 -25 -26 -29 -23 -135 2 -60 1 -112 -3
-115 -3 -3 -33 27 -66 67 -80 97 -176 188 -200 188 -30 0 -72 -38 -72 -66 0
-24 -23 -34 -35 -14 -11 18 -49 10 -77 -17 -33 -32 -37 -77 -13 -163 24 -85
40 -179 32 -187 -4 -3 -13 -1 -19 5 -8 8 -47 12 -108 12 l-95 0 -1 173 c0 187
-7 219 -55 246 -23 13 -28 12 -52 -5 -15 -10 -30 -30 -33 -44 -18 -78 -14 -77
-75 -26 -31 25 -59 46 -62 46 -4 0 -32 12 -63 27 -56 26 -56 26 -90 8 -34 -18
-35 -18 -57 3 -30 28 -61 28 -87 0z m68 -25 c5 -10 12 -90 16 -178 3 -88 11
-189 17 -225 6 -36 11 -76 10 -90 -1 -14 -2 -71 -4 -127 -1 -56 -5 -104 -9
-108 -17 -17 -25 11 -31 100 -4 52 -12 105 -18 118 -15 28 -260 336 -286 360
-20 17 -20 15 -26 -120 -3 -76 -2 -156 3 -178 9 -40 -4 -95 -23 -95 -4 0 -17
19 -27 43 -17 38 -19 70 -20 262 -1 222 0 234 37 235 15 0 157 -159 244 -275
40 -53 73 -94 74 -93 2 2 -2 77 -8 168 -6 91 -7 177 -4 193 8 31 41 37 55 10z
m1260 -48 c1 -33 10 -139 19 -235 18 -199 18 -197 15 -342 -2 -84 -5 -108 -16
-108 -15 0 -26 61 -26 144 0 57 -11 80 -92 184 -137 175 -219 272 -230 272
-10 0 -9 -295 1 -330 8 -26 -11 -80 -28 -80 -5 0 -17 19 -26 43 -15 36 -18 76
-17 262 0 278 -2 276 115 155 45 -47 117 -132 160 -189 l78 -105 -6 165 c-4
90 -8 170 -11 177 -7 24 16 53 39 50 19 -3 22 -10 25 -63z m-1067 10 c60 -26
166 -122 183 -166 19 -46 19 -61 6 -110 -10 -35 -38 -66 -207 -225 -33 -32
-33 -32 -33 -127 0 -92 -9 -122 -31 -100 -5 5 -13 90 -19 189 -5 98 -14 229
-20 289 -21 249 -22 240 5 270 24 25 27 25 53 11 15 -8 43 -22 63 -31z m272
-45 c4 -36 6 -132 3 -214 l-5 -149 114 5 c139 6 147 2 122 -70 -10 -26 -17
-55 -17 -64 0 -10 -7 -18 -15 -18 -10 0 -15 10 -15 33 0 54 -10 61 -83 55 -36
-3 -80 -13 -98 -22 -18 -9 -33 -15 -34 -14 -1 2 -10 15 -21 29 -17 23 -18 36
-12 135 4 62 2 157 -4 221 -12 122 -6 147 36 141 18 -3 22 -13 29 -68z m941
61 c9 -14 9 -63 1 -124 l-8 -59 49 35 c27 20 69 56 92 80 47 48 73 52 93 15
19 -36 -33 -96 -124 -142 -42 -22 -77 -42 -77 -46 0 -4 17 -19 38 -33 20 -14
66 -52 102 -85 56 -52 63 -63 54 -79 -19 -30 -41 -26 -85 17 -24 23 -60 50
-80 61 -21 10 -40 23 -44 29 -15 24 -24 6 -29 -57 -4 -38 -12 -84 -18 -103 -7
-19 -14 -53 -17 -74 -10 -69 -28 -53 -33 31 -8 120 7 494 21 521 12 22 54 31
65 13z m-2244 -63 c16 -29 40 -84 52 -123 12 -38 25 -73 28 -78 3 -4 14 28 24
70 28 120 42 135 84 90 37 -39 61 -111 83 -241 21 -128 20 -176 -5 -176 -26 0
-37 28 -55 141 -23 137 -31 169 -41 169 -4 0 -16 -39 -26 -86 -9 -47 -26 -96
-36 -108 l-18 -21 -25 28 c-13 15 -36 67 -51 115 -15 48 -30 91 -34 95 -7 8
-30 -165 -30 -226 0 -18 -4 -37 -9 -43 -5 -5 -11 -26 -13 -47 -4 -48 -21 -52
-29 -7 -3 19 -12 48 -18 65 -7 16 -10 39 -7 51 13 50 36 243 36 299 0 101 42
116 90 33z m364 -3 c8 -9 17 -30 20 -48 44 -308 48 -345 35 -366 -8 -11 -17
-21 -21 -21 -16 0 -33 49 -50 140 -9 52 -24 118 -31 145 -28 101 -29 123 -7
145 24 24 34 25 54 5z m1255 -4 c11 -11 22 -35 24 -53 45 -325 46 -332 30
-357 -14 -21 -16 -22 -31 -8 -8 9 -23 58 -33 109 -9 51 -26 129 -38 172 -25
95 -26 120 -5 140 20 21 30 20 53 -3z"/>
<path d="M1306 721 c-4 -6 -4 -22 0 -36 4 -15 14 -82 24 -148 l17 -122 61 65
c68 72 69 78 24 144 -31 46 -117 112 -126 97z m92 -111 c27 -36 28 -62 3 -84
-19 -17 -20 -17 -30 3 -13 23 -15 111 -3 111 5 0 18 -13 30 -30z"/>
</g>
</svg>
